# xmcd
#
# Track frame offsets: 
#        150
#        15136
#        30034
#        50165
#        66646
#        79712
#        91383
#        108928
#        125261
#        142939
#        159560
#        168446
#
# Disc length: 2366 seconds
#
# Revision: 0
# Processed by: cddbd v1.5.2PL0 Copyright (c) Steve Scherf et al.
# Submitted via: ExactAudioCopy v0.99pb4
#
DISCID=8c093c0c
DTITLE=Amália Rodrigues - Amália Rodrigues
DYEAR=1958
DGENRE=Fado
TTITLE0=Eu Disse Adeus à Casinha
TTITLE1=Fado Nao Sei Quem És
TTITLE2=Maldição
TTITLE3=Cuidado Coração
TTITLE4=Ai Lisboa
TTITLE5=Marcha da Mouraria
TTITLE6=Foi Deus
TTITLE7=Eu Queria Cantar-te um Fado
TTITLE8=Maria da Cruz
TTITLE9=Confesso
TTITLE10=Vamos os Dois Para a Farra
TTITLE11=Los "Asituneros"
EXTD=
EXTT0=
EXTT1=
EXTT2=
EXTT3=
EXTT4=
EXTT5=
EXTT6=
EXTT7=
EXTT8=
EXTT9=
EXTT10=
EXTT11=
PLAYORDER=
